<?xml version="1.0" standalone="no"?>
<!DOCTYPE svg PUBLIC "-//W3C//DTD SVG 20010904//EN"
 "http://www.w3.org/TR/2001/REC-SVG-20010904/DTD/svg10.dtd">
<svg version="1.0" xmlns="http://www.w3.org/2000/svg"
 width="512.000000pt" height="512.000000pt" viewBox="0 0 512.000000 512.000000"
 preserveAspectRatio="xMidYMid meet">
<metadata>
Created by potrace 1.14, written by Peter Selinger 2001-2017
</metadata>
<g transform="translate(0.000000,512.000000) scale(0.100000,-0.100000)"
fill="#000000" stroke="none">
<path d="M500 3035 l0 -2085 -250 0 -251 0 1 -289 c1 -206 5 -303 14 -339 37
-138 125 -236 266 -297 44 -20 84 -20 1725 -23 l1680 -2 69 21 c39 11 88 33
110 49 93 64 166 171 185 272 4 27 8 1099 8 2413 l0 2365 -1778 0 -1779 0 0
-2085z"/>
<path d="M4446 4419 c-57 -21 -118 -76 -149 -134 l-22 -40 -3 -1507 -2 -1507
82 -123 c45 -68 85 -125 88 -128 4 -3 9 -10 11 -15 9 -23 85 -135 91 -135 5 0
69 91 143 202 l135 203 0 1353 0 1353 35 -5 c20 -3 47 -13 61 -22 54 -36 54
-39 54 -489 l0 -415 75 0 75 0 0 424 c-1 485 -1 486 -79 565 -62 63 -114 86
-203 90 -15 1 -18 11 -18 55 0 206 -190 346 -374 275z"/>
</g>
</svg>
